<svg width="36" height="29" viewBox="0 0 36 29" fill="none" xmlns="http://www.w3.org/2000/svg">
<path d="M10.8 14.5C14.2819 14.5 17.1 11.6623 17.1 8.15625C17.1 4.6502 14.2819 1.8125 10.8 1.8125C7.31812 1.8125 4.5 4.6502 4.5 8.15625C4.5 11.6623 7.31812 14.5 10.8 14.5ZM15.12 16.3125H14.6531C13.4831 16.8789 12.1838 17.2188 10.8 17.2188C9.41625 17.2188 8.1225 16.8789 6.94687 16.3125H6.48C2.9025 16.3125 0 19.2352 0 22.8375V24.4688C0 25.9697 1.20938 27.1875 2.7 27.1875H18.9C20.3906 27.1875 21.6 25.9697 21.6 24.4688V22.8375C21.6 19.2352 18.6975 16.3125 15.12 16.3125ZM27 14.5C29.9812 14.5 32.4 12.0645 32.4 9.0625C32.4 6.06055 29.9812 3.625 27 3.625C24.0187 3.625 21.6 6.06055 21.6 9.0625C21.6 12.0645 24.0187 14.5 27 14.5ZM29.7 16.3125H29.4862C28.7044 16.5844 27.8775 16.7656 27 16.7656C26.1225 16.7656 25.2956 16.5844 24.5137 16.3125H24.3C23.1525 16.3125 22.095 16.6467 21.1669 17.1848C22.5394 18.6744 23.4 20.6512 23.4 22.8375V25.0125C23.4 25.1371 23.3719 25.2561 23.3662 25.375H33.3C34.7906 25.375 36 24.1572 36 22.6562C36 19.1502 33.1819 16.3125 29.7 16.3125Z" fill="#FF7A00"/>
</svg>
