<svg width="38" height="38" viewBox="0 0 38 38" fill="none" xmlns="http://www.w3.org/2000/svg">
<path d="M31.6667 26.917C33.4083 26.917 34.8333 25.492 34.8333 23.7503V6.33366C34.8333 4.59199 33.4083 3.16699 31.6667 3.16699H15.0417C15.5167 4.11699 15.8333 5.22533 15.8333 6.33366H31.6667V23.7503H17.4167V26.917H31.6667ZM23.75 11.0837V14.2503H14.25V34.8337H11.0833V25.3337H7.91667V34.8337H4.75V22.167H2.375V14.2503C2.375 12.5087 3.8 11.0837 5.54167 11.0837H23.75ZM12.6667 6.33366C12.6667 8.07533 11.2417 9.50033 9.5 9.50033C7.75833 9.50033 6.33333 8.07533 6.33333 6.33366C6.33333 4.59199 7.75833 3.16699 9.5 3.16699C11.2417 3.16699 12.6667 4.59199 12.6667 6.33366ZM26.9167 9.50033H30.0833V22.167H26.9167V9.50033ZM22.1667 15.8337H25.3333V22.167H22.1667V15.8337ZM17.4167 15.8337H20.5833V22.167H17.4167V15.8337Z" fill="#FF7A00"/>
</svg>
