<svg width="38" height="38" viewBox="0 0 38 38" fill="none" xmlns="http://www.w3.org/2000/svg">
<path d="M19.9508 22.7998C20.7066 22.7998 21.4316 23.1001 21.966 23.6345C22.5005 24.169 22.8008 24.8939 22.8008 25.6498V26.5998C22.8008 30.3447 19.2668 34.1998 13.3008 34.1998C7.33478 34.1998 3.80078 30.3447 3.80078 26.5998V25.6498C3.80078 24.8939 4.10105 24.169 4.63553 23.6345C5.17001 23.1001 5.89491 22.7998 6.65078 22.7998H19.9508ZM13.3008 10.4498C14.6865 10.4498 16.0155 11.0003 16.9954 11.9802C17.9753 12.96 18.5258 14.289 18.5258 15.6748C18.5258 17.0606 17.9753 18.3896 16.9954 19.3694C16.0155 20.3493 14.6865 20.8998 13.3008 20.8998C11.915 20.8998 10.586 20.3493 9.60615 19.3694C8.62627 18.3896 8.07578 17.0606 8.07578 15.6748C8.07578 14.289 8.62627 12.96 9.60615 11.9802C10.586 11.0003 11.915 10.4498 13.3008 10.4498ZM30.4008 3.7998C31.3591 3.79998 32.2821 4.16227 32.9846 4.8141C33.6872 5.46592 34.1175 6.35914 34.1894 7.3148L34.2008 7.5998V11.3998C34.2011 12.3585 33.839 13.2819 33.1871 13.9848C32.5353 14.6878 31.6418 15.1184 30.6858 15.1903L30.4008 15.1998H27.5489L25.2727 18.2398C24.2657 19.5812 22.2251 19.0378 21.8964 17.5254L21.8641 17.3145L21.8508 17.0998V15.0763L21.7026 15.0383C21.0196 14.8314 20.4086 14.4366 19.9393 13.8991C19.4699 13.3616 19.1612 12.7029 19.0483 11.9983L19.0103 11.6829L19.0008 11.3998V7.5998C19.0005 6.64111 19.3626 5.71773 20.0144 5.01476C20.6663 4.3118 21.5598 3.88121 22.5158 3.8093L22.8008 3.7998H30.4008Z" fill="#FF7A00"/>
</svg>
